<?xml version="1.0" encoding="UTF-8" standalone="no"?>
<!-- Generated by graphviz version 2.26.3 (20100126.1600)
 -->

<!-- Title: G Pages: 1 -->

<svg
   xmlns:dc="http://purl.org/dc/elements/1.1/"
   xmlns:cc="http://creativecommons.org/ns#"
   xmlns:rdf="http://www.w3.org/1999/02/22-rdf-syntax-ns#"
   xmlns:svg="http://www.w3.org/2000/svg"
   xmlns="http://www.w3.org/2000/svg"
   xmlns:sodipodi="http://sodipodi.sourceforge.net/DTD/sodipodi-0.dtd"
   xmlns:inkscape="http://www.inkscape.org/namespaces/inkscape"
   width="1612pt"
   height="402pt"
   viewBox="0.00 0.00 1612.00 402.00"
   id="svg2"
   version="1.1"
   inkscape:version="0.48.3.1 r9886"
   sodipodi:docname="ww_pilhas.svg">
  <metadata
     id="metadata458">
    <rdf:RDF>
      <cc:Work
         rdf:about="">
        <dc:format>image/svg+xml</dc:format>
        <dc:type
           rdf:resource="http://purl.org/dc/dcmitype/StillImage" />
      </cc:Work>
    </rdf:RDF>
  </metadata>
  <defs
     id="defs456" />
  <sodipodi:namedview
     pagecolor="#ffffff"
     bordercolor="#666666"
     borderopacity="1"
     objecttolerance="10"
     gridtolerance="10"
     guidetolerance="10"
     inkscape:pageopacity="0"
     inkscape:pageshadow="2"
     inkscape:window-width="1278"
     inkscape:window-height="1004"
     id="namedview454"
     showgrid="false"
     inkscape:zoom="1.3026205"
     inkscape:cx="389.76277"
     inkscape:cy="186.5152"
     inkscape:window-x="0"
     inkscape:window-y="18"
     inkscape:window-maximized="0"
     inkscape:current-layer="svg2" />
  <polygon
     style="fill:#ffffff;stroke:#ffffff"
     id="polygon7"
     points="1609,5 -4,5 -4,5 -4,-398 1609,-398 "
     transform="translate(3.6929267,398)" />
  <g
     class="node"
     id="node1"
     transform="translate(4,398)">
    <title
       id="title10">start</title>
    <ellipse
       style="fill:#ffffff;stroke:#ffffff"
       sodipodi:ry="1.8"
       sodipodi:rx="1.8"
       sodipodi:cy="-279"
       sodipodi:cx="2"
       d="m 3.8,-279 c 0,0.99411 -0.8058875,1.8 -1.8,1.8 -0.9941125,0 -1.79999995,-0.80589 -1.79999995,-1.8 0,-0.99411 0.80588745,-1.8 1.79999995,-1.8 0.9941125,0 1.8,0.80589 1.8,1.8 z"
       id="ellipse12"
       ry="1.8"
       rx="1.8"
       cy="-279"
       cx="2" />
  </g>
  <g
     class="node"
     id="node3"
     transform="translate(4,398)">
    <title
       id="title15">q0</title>
    <ellipse
       style="fill:none;stroke:#000000"
       sodipodi:ry="23.625999"
       sodipodi:rx="23.123301"
       sodipodi:cy="-279"
       sodipodi:cx="66"
       d="m 89.123301,-279 c 0,13.04828 -10.352655,23.626 -23.123301,23.626 -12.770646,0 -23.123301,-10.57772 -23.123301,-23.626 0,-13.04828 10.352655,-23.626 23.123301,-23.626 12.770646,0 23.123301,10.57772 23.123301,23.626 z"
       id="ellipse17"
       ry="23.625999"
       rx="23.123301"
       cy="-279"
       cx="66" />
    <text
       style="font-size:14px;text-anchor:middle;font-family:'Times Roman,serif'"
       id="text19"
       font-size="14.00"
       y="-274.89999"
       x="66">q0</text>
  </g>
  <g
     class="edge"
     id="edge10"
     transform="translate(4,398)">
    <title
       id="title22">start-&gt;q0</title>
    <path
       style="fill:none;stroke:#000000"
       inkscape:connector-curvature="0"
       id="path24"
       d="m 3.84637,-279 c 4.45127,0 16.31013,0 28.49103,0" />
    <polygon
       style="fill:#000000;stroke:#000000"
       id="polygon26"
       points="32.4896,-275.5 32.4897,-282.5 32.4897,-282.5 42.4896,-279 " />
  </g>
  <g
     class="node"
     id="node2"
     transform="translate(4,398)">
    <title
       id="title29">qf</title>
    <ellipse
       style="fill:none;stroke:#000000"
       sodipodi:ry="20.1516"
       sodipodi:rx="20.1516"
       sodipodi:cy="-129"
       sodipodi:cx="66"
       d="m 86.1516,-129 c 0,11.12942 -9.022179,20.1516 -20.1516,20.1516 -11.129421,0 -20.1516,-9.02218 -20.1516,-20.1516 0,-11.12942 9.022179,-20.1516 20.1516,-20.1516 11.129421,0 20.1516,9.02218 20.1516,20.1516 z"
       id="ellipse31"
       ry="20.1516"
       rx="20.1516"
       cy="-129"
       cx="66" />
    <ellipse
       style="fill:none;stroke:#000000"
       sodipodi:ry="24.1516"
       sodipodi:rx="24.1516"
       sodipodi:cy="-129"
       sodipodi:cx="66"
       d="m 90.1516,-129 c 0,13.33856 -10.81304,24.1516 -24.1516,24.1516 -13.33856,0 -24.1516,-10.81304 -24.1516,-24.1516 0,-13.33856 10.81304,-24.1516 24.1516,-24.1516 13.33856,0 24.1516,10.81304 24.1516,24.1516 z"
       id="ellipse33"
       ry="24.1516"
       rx="24.1516"
       cy="-129"
       cx="66" />
    <text
       style="font-size:14px;text-anchor:middle;font-family:'Times Roman,serif'"
       id="text35"
       font-size="14.00"
       y="-124.9"
       x="66">qf</text>
  </g>
  <path
     d="m 70,234.71358 c 0,-24.906 0,-63.95 0,-91.944"
     id="path40"
     inkscape:connector-curvature="0"
     style="fill:none;stroke:#000000" />
  <polygon
     points="62.5,-245.232 62.5,-245.232 66,-255.232 69.5,-245.232 "
     id="polygon42"
     style="fill:#000000;stroke:#000000"
     transform="matrix(1,0,0,-1,4.0000002,-10.649085)" />
  <text
     x="111.5"
     y="197.10001"
     font-size="14.00"
     id="text44"
     style="font-size:14px;text-anchor:middle;font-family:'Times Roman,serif'">(?, ?, ε, ?, ε)</text>
  <g
     class="node"
     id="node4"
     transform="translate(4,398)">
    <title
       id="title47">q1</title>
    <ellipse
       style="fill:none;stroke:#000000"
       sodipodi:ry="23.625999"
       sodipodi:rx="23.123301"
       sodipodi:cy="-279"
       sodipodi:cx="240"
       d="m 263.1233,-279 c 0,13.04828 -10.35265,23.626 -23.1233,23.626 -12.77065,0 -23.1233,-10.57772 -23.1233,-23.626 0,-13.04828 10.35265,-23.626 23.1233,-23.626 12.77065,0 23.1233,10.57772 23.1233,23.626 z"
       id="ellipse49"
       ry="23.625999"
       rx="23.123301"
       cy="-279"
       cx="240" />
    <text
       style="font-size:14px;text-anchor:middle;font-family:'Times Roman,serif'"
       id="text51"
       font-size="14.00"
       y="-274.89999"
       x="240">q1</text>
  </g>
  <g
     class="edge"
     id="edge14"
     transform="translate(4,398)">
    <title
       id="title54">q0-&gt;q1</title>
    <path
       style="fill:none;stroke:#000000"
       inkscape:connector-curvature="0"
       id="path56"
       d="m 89.8291,-279 c 30.0669,0 81.9729,0 116.1909,0" />
    <polygon
       style="fill:#000000;stroke:#000000"
       id="polygon58"
       points="206.459,-275.5 206.459,-282.5 206.459,-282.5 216.459,-279 " />
    <text
       style="font-size:14px;text-anchor:middle;font-family:'Times Roman,serif'"
       id="text60"
       font-size="14.00"
       y="-300.39999"
       x="150">(a, ε, a, ε, ε)</text>
    <text
       style="font-size:14px;text-anchor:middle;font-family:'Times Roman,serif'"
       id="text62"
       font-size="14.00"
       y="-283.39999"
       x="150">(b, ε, b, ε, ε)</text>
  </g>
  <g
     class="node"
     id="node10"
     transform="translate(4,398)">
    <title
       id="title65">q2</title>
    <ellipse
       style="fill:none;stroke:#000000"
       sodipodi:ry="23.625999"
       sodipodi:rx="23.123301"
       sodipodi:cy="-302"
       sodipodi:cx="424"
       d="m 447.1233,-302 c 0,13.04828 -10.35265,23.626 -23.1233,23.626 -12.77065,0 -23.1233,-10.57772 -23.1233,-23.626 0,-13.04828 10.35265,-23.626 23.1233,-23.626 12.77065,0 23.1233,10.57772 23.1233,23.626 z"
       id="ellipse67"
       ry="23.625999"
       rx="23.123301"
       cy="-302"
       cx="424" />
    <text
       style="font-size:14px;text-anchor:middle;font-family:'Times Roman,serif'"
       id="text69"
       font-size="14.00"
       y="-297.89999"
       x="424">q2</text>
  </g>
  <g
     class="edge"
     id="edge16"
     transform="translate(4,398)">
    <title
       id="title72">q1-&gt;q2</title>
    <path
       style="fill:none;stroke:#000000"
       inkscape:connector-curvature="0"
       id="path74"
       d="m 263.678,-281.96 c 32.156,-4.019 89.824,-11.228 126.524,-15.815" />
    <polygon
       style="fill:#000000;stroke:#000000"
       id="polygon76"
       points="390.924,-294.338 390.056,-301.284 390.056,-301.284 400.413,-299.052 " />
    <text
       style="font-size:14px;text-anchor:middle;font-family:'Times Roman,serif'"
       id="text78"
       font-size="14.00"
       y="-317.39999"
       x="332">(a, ε, a, ε, C)</text>
    <text
       style="font-size:14px;text-anchor:middle;font-family:'Times Roman,serif'"
       id="text80"
       font-size="14.00"
       y="-300.39999"
       x="332">(b, ε, b, ε, C)</text>
  </g>
  <g
     class="node"
     id="node7"
     transform="translate(4,398)">
    <title
       id="title83">q15</title>
    <ellipse
       style="fill:none;stroke:#000000"
       sodipodi:ry="29.8799"
       sodipodi:rx="29.8799"
       sodipodi:cy="-129"
       sodipodi:cx="240"
       d="m 269.8799,-129 c 0,16.50221 -13.37769,29.8799 -29.8799,29.8799 -16.50221,0 -29.8799,-13.37769 -29.8799,-29.8799 0,-16.50221 13.37769,-29.8799 29.8799,-29.8799 16.50221,0 29.8799,13.37769 29.8799,29.8799 z"
       id="ellipse85"
       ry="29.8799"
       rx="29.8799"
       cy="-129"
       cx="240" />
    <text
       style="font-size:14px;text-anchor:middle;font-family:'Times Roman,serif'"
       id="text87"
       font-size="14.00"
       y="-124.9"
       x="240">q15</text>
  </g>
  <g
     class="edge"
     id="edge70"
     transform="translate(4,398)">
    <title
       id="title90">q15-&gt;qf</title>
    <path
       style="fill:none;stroke:#000000"
       inkscape:connector-curvature="0"
       id="path92"
       d="m 209.884,-129 c -30.483,0 -77.554,0 -109.487,0" />
    <polygon
       style="fill:#000000;stroke:#000000"
       id="polygon94"
       points="100.194,-132.5 100.194,-125.5 100.194,-125.5 90.194,-129 " />
    <text
       style="font-size:14px;text-anchor:middle;font-family:'Times Roman,serif'"
       id="text96"
       font-size="14.00"
       y="-133.39999"
       x="150">(ε, ?, ε, ?, ε)</text>
  </g>
  <g
     class="edge"
     id="edge68"
     transform="translate(4,398)">
    <title
       id="title99">q15-&gt;q15</title>
    <path
       style="fill:none;stroke:#000000"
       inkscape:connector-curvature="0"
       id="path101"
       d="M 223.537,-154.189 C 221.505,-166.305 226.992,-177 240,-177 c 9.146,0 14.574,5.288 16.285,12.639" />
    <polygon
       style="fill:#000000;stroke:#000000"
       id="polygon103"
       points="252.788,-164.126 259.787,-164.249 259.787,-164.249 256.463,-154.189 " />
    <text
       style="font-size:14px;text-anchor:middle;font-family:'Times Roman,serif'"
       id="text105"
       font-size="14.00"
       y="-198.39999"
       x="240">(ε, a, ε, A, ε)</text>
    <text
       style="font-size:14px;text-anchor:middle;font-family:'Times Roman,serif'"
       id="text107"
       font-size="14.00"
       y="-181.39999"
       x="240">(ε, b, ε, B, ε)</text>
  </g>
  <g
     class="node"
     id="node9"
     transform="translate(4,398)">
    <title
       id="title110">q14</title>
    <ellipse
       style="fill:none;stroke:#000000"
       sodipodi:ry="29.8799"
       sodipodi:rx="29.8799"
       sodipodi:cy="-129"
       sodipodi:cx="424"
       d="m 453.8799,-129 c 0,16.50221 -13.37769,29.8799 -29.8799,29.8799 -16.50221,0 -29.8799,-13.37769 -29.8799,-29.8799 0,-16.50221 13.37769,-29.8799 29.8799,-29.8799 16.50221,0 29.8799,13.37769 29.8799,29.8799 z"
       id="ellipse112"
       ry="29.8799"
       rx="29.8799"
       cy="-129"
       cx="424" />
    <text
       style="font-size:14px;text-anchor:middle;font-family:'Times Roman,serif'"
       id="text114"
       font-size="14.00"
       y="-124.9"
       x="424">q14</text>
  </g>
  <g
     class="edge"
     id="edge66"
     transform="translate(4,398)">
    <title
       id="title117">q14-&gt;q15</title>
    <path
       style="fill:none;stroke:#000000"
       inkscape:connector-curvature="0"
       id="path119"
       d="m 393.877,-129 c -30.892,0 -79.132,0 -113.357,0" />
    <polygon
       style="fill:#000000;stroke:#000000"
       id="polygon121"
       points="280.384,-132.5 280.384,-125.5 280.384,-125.5 270.384,-129 " />
    <text
       style="font-size:14px;text-anchor:middle;font-family:'Times Roman,serif'"
       id="text123"
       font-size="14.00"
       y="-133.39999"
       x="332">(ε, D, ε, ε, ε)</text>
  </g>
  <g
     class="edge"
     id="edge64"
     transform="translate(4,398)">
    <title
       id="title126">q14-&gt;q14</title>
    <path
       style="fill:none;stroke:#000000"
       inkscape:connector-curvature="0"
       id="path128"
       d="M 407.537,-154.189 C 405.505,-166.305 410.992,-177 424,-177 c 9.146,0 14.574,5.288 16.285,12.639" />
    <polygon
       style="fill:#000000;stroke:#000000"
       id="polygon130"
       points="436.788,-164.126 443.787,-164.249 443.787,-164.249 440.463,-154.189 " />
    <text
       style="font-size:14px;text-anchor:middle;font-family:'Times Roman,serif'"
       id="text132"
       font-size="14.00"
       y="-198.39999"
       x="424">(ε, A, ε, ε, A)</text>
    <text
       style="font-size:14px;text-anchor:middle;font-family:'Times Roman,serif'"
       id="text134"
       font-size="14.00"
       y="-181.39999"
       x="424">(ε, B, ε, ε, B)</text>
  </g>
  <g
     class="edge"
     id="edge18"
     transform="translate(4,398)">
    <title
       id="title137">q2-&gt;q1</title>
    <path
       style="fill:none;stroke:#000000"
       inkscape:connector-curvature="0"
       id="path139"
       d="m 412.32,-281.862 c -8.369,12.288 -20.873,26.925 -36.32,33.862 -35.679,16.022 -50.486,11.061 -88,0 -7.458,-2.199 -14.848,-5.957 -21.513,-10.113" />
    <polygon
       style="fill:#000000;stroke:#000000"
       id="polygon141"
       points="268.153,-261.212 264.229,-255.415 264.229,-255.415 257.909,-263.919 " />
    <text
       style="font-size:14px;text-anchor:middle;font-family:'Times Roman,serif'"
       id="text143"
       font-size="14.00"
       y="-269.39999"
       x="332">(a, ε, a, ε, ε)</text>
    <text
       style="font-size:14px;text-anchor:middle;font-family:'Times Roman,serif'"
       id="text145"
       font-size="14.00"
       y="-252.39999"
       x="332">(b, ε, b, ε, ε)</text>
  </g>
  <g
     class="node"
     id="node13"
     transform="translate(4,398)">
    <title
       id="title148">q3</title>
    <ellipse
       style="fill:none;stroke:#000000"
       sodipodi:ry="23.625999"
       sodipodi:rx="23.123301"
       sodipodi:cy="-302"
       sodipodi:cx="606"
       d="m 629.1233,-302 c 0,13.04828 -10.35265,23.626 -23.1233,23.626 -12.77065,0 -23.1233,-10.57772 -23.1233,-23.626 0,-13.04828 10.35265,-23.626 23.1233,-23.626 12.77065,0 23.1233,10.57772 23.1233,23.626 z"
       id="ellipse150"
       ry="23.625999"
       rx="23.123301"
       cy="-302"
       cx="606" />
    <text
       style="font-size:14px;text-anchor:middle;font-family:'Times Roman,serif'"
       id="text152"
       font-size="14.00"
       y="-297.89999"
       x="606">q3</text>
  </g>
  <g
     class="edge"
     id="edge20"
     transform="translate(4,398)">
    <title
       id="title155">q2-&gt;q3</title>
    <path
       style="fill:none;stroke:#000000"
       inkscape:connector-curvature="0"
       id="path157"
       d="m 447.793,-302 c 31.834,0 88.461,0 124.628,0" />
    <polygon
       style="fill:#000000;stroke:#000000"
       id="polygon159"
       points="572.489,-298.5 572.489,-305.5 572.489,-305.5 582.489,-302 " />
    <text
       style="font-size:14px;text-anchor:middle;font-family:'Times Roman,serif'"
       id="text161"
       font-size="14.00"
       y="-306.39999"
       x="515">(?, ε, D, ε, ε)</text>
  </g>
  <g
     class="node"
     id="node12"
     transform="translate(4,398)">
    <title
       id="title164">q13</title>
    <ellipse
       style="fill:none;stroke:#000000"
       sodipodi:ry="29.8799"
       sodipodi:rx="29.8799"
       sodipodi:cy="-129"
       sodipodi:cx="606"
       d="m 635.8799,-129 c 0,16.50221 -13.37769,29.8799 -29.8799,29.8799 -16.50221,0 -29.8799,-13.37769 -29.8799,-29.8799 0,-16.50221 13.37769,-29.8799 29.8799,-29.8799 16.50221,0 29.8799,13.37769 29.8799,29.8799 z"
       id="ellipse166"
       ry="29.8799"
       rx="29.8799"
       cy="-129"
       cx="606" />
    <text
       style="font-size:14px;text-anchor:middle;font-family:'Times Roman,serif'"
       id="text168"
       font-size="14.00"
       y="-124.9"
       x="606">q13</text>
  </g>
  <g
     class="edge"
     id="edge60"
     transform="translate(4,398)">
    <title
       id="title171">q13-&gt;q14</title>
    <path
       style="fill:none;stroke:#000000"
       inkscape:connector-curvature="0"
       id="path173"
       d="m 575.902,-129 c -30.445,0 -77.701,0 -111.416,0" />
    <polygon
       style="fill:#000000;stroke:#000000"
       id="polygon175"
       points="464.054,-132.5 464.054,-125.5 464.054,-125.5 454.054,-129 " />
    <text
       style="font-size:14px;text-anchor:middle;font-family:'Times Roman,serif'"
       id="text177"
       font-size="14.00"
       y="-133.39999"
       x="515">(ε, ε, ε, ?, ε)</text>
  </g>
  <g
     class="edge"
     id="edge58"
     transform="translate(4,398)">
    <title
       id="title180">q13-&gt;q13</title>
    <path
       style="fill:none;stroke:#000000"
       inkscape:connector-curvature="0"
       id="path182"
       d="M 589.537,-154.189 C 587.505,-166.305 592.992,-177 606,-177 c 9.146,0 14.574,5.288 16.285,12.639" />
    <polygon
       style="fill:#000000;stroke:#000000"
       id="polygon184"
       points="618.788,-164.126 625.787,-164.249 625.787,-164.249 622.463,-154.189 " />
    <text
       style="font-size:14px;text-anchor:middle;font-family:'Times Roman,serif'"
       id="text186"
       font-size="14.00"
       y="-198.39999"
       x="606">(ε, ε, A, A, ε)</text>
    <text
       style="font-size:14px;text-anchor:middle;font-family:'Times Roman,serif'"
       id="text188"
       font-size="14.00"
       y="-181.39999"
       x="606">(ε, ε, B, B, ε)</text>
  </g>
  <g
     class="node"
     id="node24"
     transform="translate(4,398)">
    <title
       id="title191">q9</title>
    <ellipse
       style="fill:none;stroke:#000000"
       sodipodi:ry="23.625999"
       sodipodi:rx="23.123301"
       sodipodi:cy="-151"
       sodipodi:cx="1402"
       d="m 1425.1233,-151 c 0,13.04828 -10.3527,23.626 -23.1233,23.626 -12.7706,0 -23.1233,-10.57772 -23.1233,-23.626 0,-13.04828 10.3527,-23.626 23.1233,-23.626 12.7706,0 23.1233,10.57772 23.1233,23.626 z"
       id="ellipse193"
       ry="23.625999"
       rx="23.123301"
       cy="-151"
       cx="1402" />
    <text
       style="font-size:14px;text-anchor:middle;font-family:'Times Roman,serif'"
       id="text195"
       font-size="14.00"
       y="-146.89999"
       x="1402">q9</text>
  </g>
  <g
     class="edge"
     id="edge62"
     transform="translate(4,398)">
    <title
       id="title198">q13-&gt;q9</title>
    <path
       style="fill:none;stroke:#000000"
       inkscape:connector-curvature="0"
       id="path200"
       d="m 623.129,-153.752 c 8.306,-10.509 19.045,-22.171 30.871,-30.248 59.673,-40.752 80.74,-55 153,-55 0,0 0,0 409,0 61.91,0 125.25,40.333 159.7,66.388" />
    <polygon
       style="fill:#000000;stroke:#000000"
       id="polygon202"
       points="1373.77,-169.681 1378.05,-175.217 1378.05,-175.217 1383.82,-166.328 " />
    <text
       style="font-size:14px;text-anchor:middle;font-family:'Times Roman,serif'"
       id="text204"
       font-size="14.00"
       y="-243.39999"
       x="1018">(ε, ε, ε, E, ε)</text>
  </g>
  <g
     class="node"
     id="node16"
     transform="translate(4,398)">
    <title
       id="title207">q4</title>
    <ellipse
       style="fill:none;stroke:#000000"
       sodipodi:ry="23.625999"
       sodipodi:rx="23.123301"
       sodipodi:cy="-302"
       sodipodi:cx="807"
       d="m 830.1233,-302 c 0,13.04828 -10.35265,23.626 -23.1233,23.626 -12.77065,0 -23.1233,-10.57772 -23.1233,-23.626 0,-13.04828 10.35265,-23.626 23.1233,-23.626 12.77065,0 23.1233,10.57772 23.1233,23.626 z"
       id="ellipse209"
       ry="23.625999"
       rx="23.123301"
       cy="-302"
       cx="807" />
    <text
       style="font-size:14px;text-anchor:middle;font-family:'Times Roman,serif'"
       id="text211"
       font-size="14.00"
       y="-297.89999"
       x="807">q4</text>
  </g>
  <g
     class="edge"
     id="edge22"
     transform="translate(4,398)">
    <title
       id="title214">q3-&gt;q4</title>
    <path
       style="fill:none;stroke:#000000"
       inkscape:connector-curvature="0"
       id="path216"
       d="m 629.847,-302 c 35.606,0 102.817,0 143.437,0" />
    <polygon
       style="fill:#000000;stroke:#000000"
       id="polygon218"
       points="773.495,-298.5 773.495,-305.5 773.495,-305.5 783.495,-302 " />
    <text
       style="font-size:14px;text-anchor:middle;font-family:'Times Roman,serif'"
       id="text220"
       font-size="14.00"
       y="-306.39999"
       x="699">(ε, ε, ε, C, E)</text>
  </g>
  <g
     class="node"
     id="node15"
     transform="translate(4,398)">
    <title
       id="title223">q12</title>
    <ellipse
       style="fill:none;stroke:#000000"
       sodipodi:ry="29.8799"
       sodipodi:rx="29.8799"
       sodipodi:cy="-129"
       sodipodi:cx="807"
       d="m 836.8799,-129 c 0,16.50221 -13.37769,29.8799 -29.8799,29.8799 -16.50221,0 -29.8799,-13.37769 -29.8799,-29.8799 0,-16.50221 13.37769,-29.8799 29.8799,-29.8799 16.50221,0 29.8799,13.37769 29.8799,29.8799 z"
       id="ellipse225"
       ry="29.8799"
       rx="29.8799"
       cy="-129"
       cx="807" />
    <text
       style="font-size:14px;text-anchor:middle;font-family:'Times Roman,serif'"
       id="text227"
       font-size="14.00"
       y="-124.9"
       x="807">q12</text>
  </g>
  <g
     class="edge"
     id="edge56"
     transform="translate(4,398)">
    <title
       id="title230">q12-&gt;q13</title>
    <path
       style="fill:none;stroke:#000000"
       inkscape:connector-curvature="0"
       id="path232"
       d="m 776.703,-129 c -34.725,0 -91.791,0 -130.282,0" />
    <polygon
       style="fill:#000000;stroke:#000000"
       id="polygon234"
       points="646.092,-132.5 646.092,-125.5 646.092,-125.5 636.092,-129 " />
    <text
       style="font-size:14px;text-anchor:middle;font-family:'Times Roman,serif'"
       id="text236"
       font-size="14.00"
       y="-167.39999"
       x="699">(ε, ε, B, A, A)</text>
    <text
       style="font-size:14px;text-anchor:middle;font-family:'Times Roman,serif'"
       id="text238"
       font-size="14.00"
       y="-150.39999"
       x="699">(ε, ε, B, B, B)</text>
    <text
       style="font-size:14px;text-anchor:middle;font-family:'Times Roman,serif'"
       id="text240"
       font-size="14.00"
       y="-133.39999"
       x="699">(ε, ε, B, E, E)</text>
  </g>
  <g
     class="edge"
     id="edge52"
     transform="translate(4,398)">
    <title
       id="title243">q12-&gt;q12</title>
    <path
       style="fill:none;stroke:#000000"
       inkscape:connector-curvature="0"
       id="path245"
       d="M 787.945,-152.709 C 784.707,-165.42 791.059,-177 807,-177 c 11.458,0 17.962,5.982 19.511,14.067" />
    <polygon
       style="fill:#000000;stroke:#000000"
       id="polygon247"
       points="823.005,-162.855 829.998,-162.543 829.998,-162.543 826.055,-152.709 " />
    <text
       style="font-size:14px;text-anchor:middle;font-family:'Times Roman,serif'"
       id="text249"
       font-size="14.00"
       y="-198.39999"
       x="807">(ε, ε, a, a, ε)</text>
    <text
       style="font-size:14px;text-anchor:middle;font-family:'Times Roman,serif'"
       id="text251"
       font-size="14.00"
       y="-181.39999"
       x="807">(ε, ε, b, b, ε)</text>
  </g>
  <g
     class="edge"
     id="edge26"
     transform="translate(4,398)">
    <title
       id="title254">q4-&gt;q4</title>
    <path
       style="fill:none;stroke:#000000"
       inkscape:connector-curvature="0"
       id="path256"
       d="M 789.692,-317.992 C 783.219,-330.373 788.988,-343 807,-343 c 13.227,0 19.852,6.81 19.875,15.331" />
    <polygon
       style="fill:#000000;stroke:#000000"
       id="polygon258"
       points="823.489,-328.555 830.255,-326.76 830.255,-326.76 824.308,-317.992 " />
    <text
       style="font-size:14px;text-anchor:middle;font-family:'Times Roman,serif'"
       id="text260"
       font-size="14.00"
       y="-381.39999"
       x="807">(ε, a, ε, ε, a)</text>
    <text
       style="font-size:14px;text-anchor:middle;font-family:'Times Roman,serif'"
       id="text262"
       font-size="14.00"
       y="-364.39999"
       x="807">(ε, b, ε, ε, b)</text>
    <text
       style="font-size:14px;text-anchor:middle;font-family:'Times Roman,serif'"
       id="text264"
       font-size="14.00"
       y="-347.39999"
       x="807">(ε, E, ε, ε, E)</text>
  </g>
  <g
     class="node"
     id="node19"
     transform="translate(4,398)">
    <title
       id="title267">q5</title>
    <ellipse
       style="fill:none;stroke:#000000"
       sodipodi:ry="23.625999"
       sodipodi:rx="23.123301"
       sodipodi:cy="-356"
       sodipodi:cx="1018"
       d="m 1041.1233,-356 c 0,13.04828 -10.3527,23.626 -23.1233,23.626 -12.7706,0 -23.1233,-10.57772 -23.1233,-23.626 0,-13.04828 10.3527,-23.626 23.1233,-23.626 12.7706,0 23.1233,10.57772 23.1233,23.626 z"
       id="ellipse269"
       ry="23.625999"
       rx="23.123301"
       cy="-356"
       cx="1018" />
    <text
       style="font-size:14px;text-anchor:middle;font-family:'Times Roman,serif'"
       id="text271"
       font-size="14.00"
       y="-351.89999"
       x="1018">q5</text>
  </g>
  <g
     class="edge"
     id="edge24"
     transform="translate(4,398)">
    <title
       id="title274">q4-&gt;q5</title>
    <path
       style="fill:none;stroke:#000000"
       inkscape:connector-curvature="0"
       id="path276"
       d="m 829.982,-307.882 c 37.576,-9.616 112.28,-28.735 155.351,-39.758" />
    <polygon
       style="fill:#000000;stroke:#000000"
       id="polygon278"
       points="986.226,-344.255 984.49,-351.037 984.49,-351.037 995.046,-350.126 " />
    <text
       style="font-size:14px;text-anchor:middle;font-family:'Times Roman,serif'"
       id="text280"
       font-size="14.00"
       y="-345.39999"
       x="913">(ε, D, ε, ε, ε)</text>
  </g>
  <g
     class="node"
     id="node18"
     transform="translate(4,398)">
    <title
       id="title283">q11</title>
    <ellipse
       style="fill:none;stroke:#000000"
       sodipodi:ry="29.8799"
       sodipodi:rx="29.8799"
       sodipodi:cy="-30"
       sodipodi:cx="1018"
       d="m 1047.8799,-30 c 0,16.502213 -13.3777,29.87989998 -29.8799,29.87989998 -16.5022,0 -29.8799,-13.37768698 -29.8799,-29.87989998 0,-16.502213 13.3777,-29.8799 29.8799,-29.8799 16.5022,0 29.8799,13.377687 29.8799,29.8799 z"
       id="ellipse285"
       ry="29.8799"
       rx="29.8799"
       cy="-30"
       cx="1018" />
    <text
       style="font-size:14px;text-anchor:middle;font-family:'Times Roman,serif'"
       id="text287"
       font-size="14.00"
       y="-25.9"
       x="1018">q11</text>
  </g>
  <g
     class="edge"
     id="edge54"
     transform="translate(4,398)">
    <title
       id="title290">q11-&gt;q13</title>
    <path
       style="fill:none;stroke:#000000"
       inkscape:connector-curvature="0"
       id="path292"
       d="M 988.098,-26.4606 C 939.56,-21.7228 841.087,-16.3259 762,-39 715.495,-52.3331 668.218,-82.4261 638.091,-104.149" />
    <polygon
       style="fill:#000000;stroke:#000000"
       id="polygon294"
       points="639.821,-107.221 635.681,-101.576 635.681,-101.576 629.688,-110.313 " />
    <text
       style="font-size:14px;text-anchor:middle;font-family:'Times Roman,serif'"
       id="text296"
       font-size="14.00"
       y="-77.400002"
       x="807">(ε, ε, A, A, A)</text>
    <text
       style="font-size:14px;text-anchor:middle;font-family:'Times Roman,serif'"
       id="text298"
       font-size="14.00"
       y="-60.400002"
       x="807">(ε, ε, A, B, B)</text>
    <text
       style="font-size:14px;text-anchor:middle;font-family:'Times Roman,serif'"
       id="text300"
       font-size="14.00"
       y="-43.400002"
       x="807">(ε, ε, A, E, E)</text>
  </g>
  <g
     class="edge"
     id="edge50"
     transform="translate(4,398)">
    <title
       id="title303">q11-&gt;q11</title>
    <path
       style="fill:none;stroke:#000000"
       inkscape:connector-curvature="0"
       id="path305"
       d="M 999.305,-53.709 C 996.128,-66.4199 1002.36,-78 1018,-78 c 11.24,0 17.62,5.9823 19.14,14.067" />
    <polygon
       style="fill:#000000;stroke:#000000"
       id="polygon307"
       points="1033.64,-63.8526 1040.63,-63.5462 1040.63,-63.5462 1036.7,-53.709 " />
    <text
       style="font-size:14px;text-anchor:middle;font-family:'Times Roman,serif'"
       id="text309"
       font-size="14.00"
       y="-99.400002"
       x="1018">(ε, ε, a, a, ε)</text>
    <text
       style="font-size:14px;text-anchor:middle;font-family:'Times Roman,serif'"
       id="text311"
       font-size="14.00"
       y="-82.400002"
       x="1018">(ε, ε, b, b, ε)</text>
  </g>
  <g
     class="node"
     id="node22"
     transform="translate(4,398)">
    <title
       id="title314">q6</title>
    <ellipse
       style="fill:none;stroke:#000000"
       sodipodi:ry="23.625999"
       sodipodi:rx="23.123301"
       sodipodi:cy="-301"
       sodipodi:cx="1216"
       d="m 1239.1233,-301 c 0,13.04828 -10.3527,23.626 -23.1233,23.626 -12.7706,0 -23.1233,-10.57772 -23.1233,-23.626 0,-13.04828 10.3527,-23.626 23.1233,-23.626 12.7706,0 23.1233,10.57772 23.1233,23.626 z"
       id="ellipse316"
       ry="23.625999"
       rx="23.123301"
       cy="-301"
       cx="1216" />
    <text
       style="font-size:14px;text-anchor:middle;font-family:'Times Roman,serif'"
       id="text318"
       font-size="14.00"
       y="-296.89999"
       x="1216">q6</text>
  </g>
  <g
     class="edge"
     id="edge28"
     transform="translate(4,398)">
    <title
       id="title321">q5-&gt;q6</title>
    <path
       style="fill:none;stroke:#000000"
       inkscape:connector-curvature="0"
       id="path323"
       d="m 1040.71,-349.691 c 35.04,9.734 102.44,28.455 142.68,39.634" />
    <polygon
       style="fill:#000000;stroke:#000000"
       id="polygon325"
       points="1182.68,-306.624 1184.55,-313.369 1184.55,-313.369 1193.25,-307.32 " />
    <text
       style="font-size:14px;text-anchor:middle;font-family:'Times Roman,serif'"
       id="text327"
       font-size="14.00"
       y="-360.39999"
       x="1124">(ε, a, D, ε, a)</text>
    <text
       style="font-size:14px;text-anchor:middle;font-family:'Times Roman,serif'"
       id="text329"
       font-size="14.00"
       y="-343.39999"
       x="1124">(ε, b, D, ε, b)</text>
  </g>
  <g
     class="node"
     id="node21"
     transform="translate(4,398)">
    <title
       id="title332">q10</title>
    <ellipse
       style="fill:none;stroke:#000000"
       sodipodi:ry="29.8799"
       sodipodi:rx="29.8799"
       sodipodi:cy="-148"
       sodipodi:cx="1216"
       d="m 1245.8799,-148 c 0,16.50221 -13.3777,29.8799 -29.8799,29.8799 -16.5022,0 -29.8799,-13.37769 -29.8799,-29.8799 0,-16.50221 13.3777,-29.8799 29.8799,-29.8799 16.5022,0 29.8799,13.37769 29.8799,29.8799 z"
       id="ellipse334"
       ry="29.8799"
       rx="29.8799"
       cy="-148"
       cx="1216" />
    <text
       style="font-size:14px;text-anchor:middle;font-family:'Times Roman,serif'"
       id="text336"
       font-size="14.00"
       y="-143.89999"
       x="1216">q10</text>
  </g>
  <g
     class="edge"
     id="edge48"
     transform="translate(4,398)">
    <title
       id="title339">q10-&gt;q12</title>
    <path
       style="fill:none;stroke:#000000"
       inkscape:connector-curvature="0"
       id="path341"
       d="m 1185.88,-146.601 c -72.5,3.368 -256.798,11.93 -338.65,15.732" />
    <polygon
       style="fill:#000000;stroke:#000000"
       id="polygon343"
       points="846.902,-134.357 847.226,-127.365 847.226,-127.365 837.075,-130.397 " />
    <text
       style="font-size:14px;text-anchor:middle;font-family:'Times Roman,serif'"
       id="text345"
       font-size="14.00"
       y="-145.39999"
       x="1018">(ε, ε, D, b, ε)</text>
  </g>
  <g
     class="edge"
     id="edge46"
     transform="translate(4,398)">
    <title
       id="title348">q10-&gt;q11</title>
    <path
       style="fill:none;stroke:#000000"
       inkscape:connector-curvature="0"
       id="path350"
       d="m 1190.73,-131.361 c -7.29,4.714 -15.29,9.802 -22.73,14.361 -38.85,23.7957 -84.19,49.8626 -114.77,67.1987" />
    <polygon
       style="fill:#000000;stroke:#000000"
       id="polygon352"
       points="1051.22,-52.6843 1054.66,-46.5919 1054.66,-46.5919 1044.24,-44.7136 " />
    <text
       style="font-size:14px;text-anchor:middle;font-family:'Times Roman,serif'"
       id="text354"
       font-size="14.00"
       y="-121.4"
       x="1124">(ε, ε, D, a, ε)</text>
  </g>
  <g
     class="edge"
     id="edge32"
     transform="translate(4,398)">
    <title
       id="title357">q6-&gt;q4</title>
    <path
       style="fill:none;stroke:#000000"
       inkscape:connector-curvature="0"
       id="path359"
       d="m 1192.43,-301.058 c -69.02,-0.168 -270.903,-0.662 -351.564,-0.859" />
    <polygon
       style="fill:#000000;stroke:#000000"
       id="polygon361"
       points="840.766,-305.417 840.749,-298.417 840.749,-298.417 830.757,-301.942 " />
    <text
       style="font-size:14px;text-anchor:middle;font-family:'Times Roman,serif'"
       id="text363"
       font-size="14.00"
       y="-306.39999"
       x="1018">(ε, ε, ε, C, E)</text>
  </g>
  <g
     class="edge"
     id="edge30"
     transform="translate(4,398)">
    <title
       id="title366">q6-&gt;q6</title>
    <path
       style="fill:none;stroke:#000000"
       inkscape:connector-curvature="0"
       id="path368"
       d="m 1200.61,-318.7 c -4.33,-11.807 0.8,-23.3 15.39,-23.3 10.26,0 15.84,5.682 16.74,13.16" />
    <polygon
       style="fill:#000000;stroke:#000000"
       id="polygon370"
       points="1229.24,-329.076 1236.18,-328.148 1236.18,-328.148 1231.39,-318.7 " />
    <text
       style="font-size:14px;text-anchor:middle;font-family:'Times Roman,serif'"
       id="text372"
       font-size="14.00"
       y="-380.39999"
       x="1216">(ε, ε, a, a, ε)</text>
    <text
       style="font-size:14px;text-anchor:middle;font-family:'Times Roman,serif'"
       id="text374"
       font-size="14.00"
       y="-363.39999"
       x="1216">(ε, ε, b, b, ε)</text>
    <text
       style="font-size:14px;text-anchor:middle;font-family:'Times Roman,serif'"
       id="text376"
       font-size="14.00"
       y="-346.39999"
       x="1216">(ε, ε, E, E, ε)</text>
  </g>
  <g
     class="node"
     id="node25"
     transform="translate(4,398)">
    <title
       id="title379">q7</title>
    <ellipse
       style="fill:none;stroke:#000000"
       sodipodi:ry="23.625999"
       sodipodi:rx="23.123301"
       sodipodi:cy="-301"
       sodipodi:cx="1402"
       d="m 1425.1233,-301 c 0,13.04828 -10.3527,23.626 -23.1233,23.626 -12.7706,0 -23.1233,-10.57772 -23.1233,-23.626 0,-13.04828 10.3527,-23.626 23.1233,-23.626 12.7706,0 23.1233,10.57772 23.1233,23.626 z"
       id="ellipse381"
       ry="23.625999"
       rx="23.123301"
       cy="-301"
       cx="1402" />
    <text
       style="font-size:14px;text-anchor:middle;font-family:'Times Roman,serif'"
       id="text383"
       font-size="14.00"
       y="-296.89999"
       x="1402">q7</text>
  </g>
  <g
     class="edge"
     id="edge34"
     transform="translate(4,398)">
    <title
       id="title386">q6-&gt;q7</title>
    <path
       style="fill:none;stroke:#000000"
       inkscape:connector-curvature="0"
       id="path388"
       d="m 1239.56,-301 c 32.47,0 91.19,0 128.43,0" />
    <polygon
       style="fill:#000000;stroke:#000000"
       id="polygon390"
       points="1368.34,-297.5 1368.34,-304.5 1368.34,-304.5 1378.34,-301 " />
    <text
       style="font-size:14px;text-anchor:middle;font-family:'Times Roman,serif'"
       id="text392"
       font-size="14.00"
       y="-305.39999"
       x="1307">(ε, ε, ε, ?, ε)</text>
  </g>
  <g
     class="edge"
     id="edge44"
     transform="translate(4,398)">
    <title
       id="title395">q9-&gt;q10</title>
    <path
       style="fill:none;stroke:#000000"
       inkscape:connector-curvature="0"
       id="path397"
       d="m 1378.5,-150.621 c -30.68,0.495 -84.85,1.369 -122.16,1.97" />
    <polygon
       style="fill:#000000;stroke:#000000"
       id="polygon399"
       points="1256.24,-152.15 1256.35,-145.151 1256.35,-145.151 1246.3,-148.489 " />
    <text
       style="font-size:14px;text-anchor:middle;font-family:'Times Roman,serif'"
       id="text401"
       font-size="14.00"
       y="-155.39999"
       x="1307">(ε, D, ε, ε, ε)</text>
  </g>
  <g
     class="edge"
     id="edge42"
     transform="translate(4,398)">
    <title
       id="title404">q9-&gt;q9</title>
    <path
       style="fill:none;stroke:#000000"
       inkscape:connector-curvature="0"
       id="path406"
       d="m 1386.1,-168.273 c -4.82,-11.956 0.48,-23.727 15.9,-23.727 10.96,0 16.81,5.95 17.55,13.685" />
    <polygon
       style="fill:#000000;stroke:#000000"
       id="polygon408"
       points="1416.06,-178.707 1422.97,-177.577 1422.97,-177.577 1417.9,-168.273 " />
    <text
       style="font-size:14px;text-anchor:middle;font-family:'Times Roman,serif'"
       id="text410"
       font-size="14.00"
       y="-247.39999"
       x="1402">(ε, a, ε, ε, a)</text>
    <text
       style="font-size:14px;text-anchor:middle;font-family:'Times Roman,serif'"
       id="text412"
       font-size="14.00"
       y="-230.39999"
       x="1402">(ε, b, ε, ε, b)</text>
    <text
       style="font-size:14px;text-anchor:middle;font-family:'Times Roman,serif'"
       id="text414"
       font-size="14.00"
       y="-213.39999"
       x="1402">(ε, A, ε, ε, A)</text>
    <text
       style="font-size:14px;text-anchor:middle;font-family:'Times Roman,serif'"
       id="text416"
       font-size="14.00"
       y="-196.39999"
       x="1402">(ε, B, ε, ε, B)</text>
  </g>
  <g
     class="edge"
     id="edge36"
     transform="translate(4,398)">
    <title
       id="title419">q7-&gt;q7</title>
    <path
       style="fill:none;stroke:#000000"
       inkscape:connector-curvature="0"
       id="path421"
       d="m 1386.1,-318.273 c -4.82,-11.956 0.48,-23.727 15.9,-23.727 10.96,0 16.81,5.95 17.55,13.685" />
    <polygon
       style="fill:#000000;stroke:#000000"
       id="polygon423"
       points="1416.06,-328.707 1422.97,-327.577 1422.97,-327.577 1417.9,-318.273 " />
    <text
       style="font-size:14px;text-anchor:middle;font-family:'Times Roman,serif'"
       id="text425"
       font-size="14.00"
       y="-346.39999"
       x="1402">(ε, E, ε, ε, E)</text>
  </g>
  <g
     class="node"
     id="node41"
     transform="translate(4,398)">
    <title
       id="title428">q8</title>
    <ellipse
       style="fill:none;stroke:#000000"
       sodipodi:ry="23.625999"
       sodipodi:rx="23.123301"
       sodipodi:cy="-239"
       sodipodi:cx="1580"
       d="m 1603.1233,-239 c 0,13.04828 -10.3527,23.626 -23.1233,23.626 -12.7706,0 -23.1233,-10.57772 -23.1233,-23.626 0,-13.04828 10.3527,-23.626 23.1233,-23.626 12.7706,0 23.1233,10.57772 23.1233,23.626 z"
       id="ellipse430"
       ry="23.625999"
       rx="23.123301"
       cy="-239"
       cx="1580" />
    <text
       style="font-size:14px;text-anchor:middle;font-family:'Times Roman,serif'"
       id="text432"
       font-size="14.00"
       y="-234.89999"
       x="1580">q8</text>
  </g>
  <g
     class="edge"
     id="edge38"
     transform="translate(4,398)">
    <title
       id="title435">q7-&gt;q8</title>
    <path
       style="fill:none;stroke:#000000"
       inkscape:connector-curvature="0"
       id="path437"
       d="m 1424.18,-293.273 c 31.27,10.889 88.45,30.808 124.17,43.249" />
    <polygon
       style="fill:#000000;stroke:#000000"
       id="polygon439"
       points="1547.22,-246.711 1549.52,-253.321 1549.52,-253.321 1557.82,-246.727 " />
    <text
       style="font-size:14px;text-anchor:middle;font-family:'Times Roman,serif'"
       id="text441"
       font-size="14.00"
       y="-304.39999"
       x="1496">(ε, a, a, ε, ε)</text>
    <text
       style="font-size:14px;text-anchor:middle;font-family:'Times Roman,serif'"
       id="text443"
       font-size="14.00"
       y="-287.39999"
       x="1496">(ε, b, b, ε, ε)</text>
  </g>
  <g
     class="edge"
     id="edge40"
     transform="translate(4,398)">
    <title
       id="title446">q8-&gt;q9</title>
    <path
       style="fill:none;stroke:#000000"
       inkscape:connector-curvature="0"
       id="path448"
       d="m 1558.91,-228.573 c -31.43,15.539 -90.72,44.848 -126.73,62.653" />
    <polygon
       style="fill:#000000;stroke:#000000"
       id="polygon450"
       points="1430.53,-169.01 1433.63,-162.735 1433.63,-162.735 1423.12,-161.44 " />
    <text
       style="font-size:14px;text-anchor:middle;font-family:'Times Roman,serif'"
       id="text452"
       font-size="14.00"
       y="-222.39999"
       x="1496">(ε, ε, ε, E, ε)</text>
  </g>
</svg>
